<?xml version="1.0" encoding="UTF-8" standalone="no"?>
<!-- Created with Inkscape (http://www.inkscape.org/) -->

<svg
   xmlns:dc="http://purl.org/dc/elements/1.1/"
   xmlns:cc="http://creativecommons.org/ns#"
   xmlns:rdf="http://www.w3.org/1999/02/22-rdf-syntax-ns#"
   xmlns:svg="http://www.w3.org/2000/svg"
   xmlns="http://www.w3.org/2000/svg"
   xmlns:sodipodi="http://sodipodi.sourceforge.net/DTD/sodipodi-0.dtd"
   xmlns:inkscape="http://www.inkscape.org/namespaces/inkscape"
   id="svg8"
   version="1.1"
   viewBox="0 0 100.54167 141.55208"
   height="141.55208mm"
   width="100.54167mm"
   inkscape:version="0.92.3 (2405546, 2018-03-11)"
   sodipodi:docname="locust-logo-white.svg">
  <defs
     id="defs2" />
  <sodipodi:namedview
     inkscape:window-maximized="1"
     inkscape:window-y="27"
     inkscape:window-x="0"
     inkscape:window-height="1016"
     inkscape:window-width="2560"
     inkscape:guide-bbox="true"
     showguides="true"
     guidetolerance="20"
     objecttolerance="20"
     inkscape:snap-tangential="false"
     inkscape:snap-perpendicular="false"
     showgrid="true"
     inkscape:current-layer="layer1"
     inkscape:document-units="mm"
     inkscape:cy="298.64622"
     inkscape:cx="222.49951"
     inkscape:zoom="1.4"
     inkscape:pageshadow="2"
     inkscape:pageopacity="0.0"
     borderopacity="1.0"
     bordercolor="#666666"
     pagecolor="#ffffff"
     id="base"
     fit-margin-top="0"
     fit-margin-left="0"
     fit-margin-right="0"
     fit-margin-bottom="0">
    <inkscape:grid
       type="xygrid"
       id="grid1056"
       originx="0"
       originy="-154.78125" />
  </sodipodi:namedview>
  <metadata
     id="metadata5">
    <rdf:RDF>
      <cc:Work
         rdf:about="">
        <dc:format>image/svg+xml</dc:format>
        <dc:type
           rdf:resource="http://purl.org/dc/dcmitype/StillImage" />
        <dc:title></dc:title>
      </cc:Work>
    </rdf:RDF>
  </metadata>
  <g
     inkscape:label="Layer 1"
     inkscape:groupmode="layer"
     id="layer1"
     transform="translate(0,-0.666666)">
    <path
       style="fill:#ffffff;fill-opacity:1;stroke:none;stroke-width:0.26458332px;stroke-linecap:butt;stroke-linejoin:miter;stroke-opacity:1"
       d="m -3.3333334e-7,0.666666 c 0,0 26.13666533333334,26.162852 44.97916733333334,55.5625 0,0 -11.918331,-5.291666 -37.0416673,-5.291666 C 3.9284568,40.647623 -3.3333334e-7,0.666666 -3.3333334e-7,0.666666 Z"
       id="path815"
       inkscape:connector-curvature="0"
       sodipodi:nodetypes="cccc" />
    <path
       style="fill:#ffffff;fill-opacity:1;stroke:none;stroke-width:0.26458332px;stroke-linecap:butt;stroke-linejoin:miter;stroke-opacity:1"
       d="M 44.979167,65.489583 C 47.625,61.520833 47.625,60.197916 47.625,60.197916 c 1.322917,0.661458 1.984375,0.992188 2.645833,0.992188 0.661459,0 1.322917,-0.33073 2.645834,-0.992188 0,0 0,1.322917 2.645833,5.291667 0,37.041667 -5.291668,76.729167 -5.291668,76.729167 0,0 -5.291665,-39.6875 -5.291665,-76.729167 z"
       id="path886"
       inkscape:connector-curvature="0"
       sodipodi:nodetypes="ccscccc" />
    <path
       style="fill:#ffffff;fill-opacity:1;stroke:none;stroke-width:0.26458332px;stroke-linecap:butt;stroke-linejoin:miter;stroke-opacity:1"
       d="m 10.583334,131.63541 c 0,0 21.166666,-51.593744 34.395833,-72.760411 -13.229167,3.96875 -23.8125,3.96875 -23.8125,3.96875 C 19.29578,100.52875 10.583334,131.63541 10.583334,131.63541 Z"
       id="path815-5"
       inkscape:connector-curvature="0"
       sodipodi:nodetypes="cccc" />
    <path
       style="fill:#ffffff;fill-opacity:1;stroke:none;stroke-width:0.26458332px;stroke-linecap:butt;stroke-linejoin:miter;stroke-opacity:1"
       d="m 44.981505,49.614591 c 2.645833,3.968742 2.645833,6.61458 2.645833,6.61458 1.322916,-0.661461 1.984375,-0.992192 2.645833,-0.992192 0.661458,0 1.322917,0.330731 2.645834,0.992192 0,0 0,-2.645838 2.645833,-6.61458 C 52.919005,21.833333 50.27317,11.250008 50.27317,11.250008 c 0,0 -2.645832,10.583325 -5.291665,38.364583 z"
       id="path886-3"
       inkscape:connector-curvature="0"
       sodipodi:nodetypes="ccscccc" />
    <path
       style="fill:#ffffff;fill-opacity:1;stroke:none;stroke-width:0.26458332px;stroke-linecap:butt;stroke-linejoin:miter;stroke-opacity:1"
       d="m 100.54167,0.6666663 c 0,0 -26.136668,26.1628517 -44.97917,55.5624997 0,0 11.918331,-5.291667 37.041667,-5.291667 C 96.61321,40.647623 100.54167,0.6666663 100.54167,0.6666663 Z"
       id="path815-6"
       inkscape:connector-curvature="0"
       sodipodi:nodetypes="cccc" />
    <path
       style="fill:#ffffff;fill-opacity:1;stroke:none;stroke-width:0.26458332px;stroke-linecap:butt;stroke-linejoin:miter;stroke-opacity:1"
       d="m 89.958333,131.63541 c 0,0 -21.166666,-51.593744 -34.395833,-72.760411 13.229167,3.96875 23.8125,3.96875 23.8125,3.96875 1.870887,37.685001 10.583333,68.791661 10.583333,68.791661 z"
       id="path815-5-5"
       inkscape:connector-curvature="0"
       sodipodi:nodetypes="cccc" />
  </g>
</svg>
