<svg xmlns="http://www.w3.org/2000/svg" width="200" height="200" viewBox="0 0 52.917 52.917"><g transform="translate(0 -244.083)"><circle cx="26.317" cy="270.4" r="24.899" fill="#070707"/><path d="M26.458 245.351A25.159 25.159 0 001.3 270.511a25.159 25.159 0 0025.158 25.158 25.159 25.159 0 0025.159-25.159 25.159 25.159 0 00-25.159-25.159zm-14.552 7.565s7.591 7.599 13.064 16.137c0 0-3.462-1.536-10.758-1.536-1.165-2.989-2.306-14.601-2.306-14.601zm29.202 0s-1.142 11.612-2.306 14.6c-7.297 0-10.758 1.537-10.758 1.537 5.472-8.538 13.064-16.137 13.064-16.137zm-14.6 3.074s.768 3.073 1.536 11.142c-.768 1.153-.768 1.921-.768 1.921-.384-.192-.576-.288-.769-.288-.192 0-.384.096-.768.288 0 0 0-.768-.768-1.92.768-8.07 1.536-11.143 1.536-11.143zm-1.538 13.832c-3.842 6.147-9.99 21.132-9.99 21.132s2.53-9.035 3.074-19.98c0 0 3.074 0 6.916-1.152zm3.074 0c3.842 1.152 6.916 1.152 6.916 1.152.543 10.945 3.073 19.98 3.073 19.98s-6.147-14.985-9.99-21.132zm-2.306.384c.385.192.577.288.769.288.192 0 .384-.096.768-.288 0 0 0 .384.769 1.537 0 10.758-1.537 22.285-1.537 22.285s-1.537-11.527-1.537-22.285c.769-1.153.768-1.537.768-1.537z" fill="#fff"/></g></svg>