<svg xmlns="http://www.w3.org/2000/svg" width="200" height="200" viewBox="0 0 52.917 52.917"><path d="M26.458 1.268A25.159 25.159 0 001.3 26.427a25.159 25.159 0 0025.158 25.158 25.159 25.159 0 0025.159-25.158A25.159 25.159 0 0026.458 1.268zM11.906 8.833S19.497 16.43 24.97 24.97c0 0-3.462-1.537-10.758-1.537-1.165-2.988-2.306-14.6-2.306-14.6zm29.202 0s-1.142 11.612-2.306 14.6c-7.297 0-10.758 1.537-10.758 1.537 5.472-8.539 13.064-16.137 13.064-16.137zm-14.6 3.073s.768 3.074 1.536 11.143c-.768 1.152-.768 1.921-.768 1.921-.384-.192-.576-.288-.769-.288-.192 0-.384.096-.768.288 0 0 0-.769-.768-1.921.768-8.069 1.536-11.143 1.536-11.143zM24.97 25.738c-3.842 6.148-9.99 21.133-9.99 21.133s2.53-9.035 3.074-19.98c0 0 3.074 0 6.916-1.153zm3.074 0c3.842 1.153 6.916 1.153 6.916 1.153.543 10.945 3.073 19.98 3.073 19.98s-6.147-14.985-9.99-21.133zm-2.306.384c.385.193.577.289.769.289.192 0 .384-.097.768-.289 0 0 0 .385.769 1.537 0 10.759-1.537 22.286-1.537 22.286S24.97 38.418 24.97 27.659c.769-1.152.768-1.537.768-1.537z" fill="#2b2a2e" fill-opacity=".941"/></svg>