<svg xmlns="http://www.w3.org/2000/svg" viewBox="0 0 100.542 141.552" height="535" width="380"><path d="M0 0s26.137 26.163 44.98 55.563c0 0-11.92-5.292-37.043-5.292C3.928 39.98 0 0 0 0zm44.98 64.823c2.645-3.969 2.645-5.292 2.645-5.292 1.323.662 1.984.992 2.646.992.661 0 1.323-.33 2.646-.992 0 0 0 1.323 2.646 5.292 0 37.042-5.292 76.73-5.292 76.73s-5.292-39.688-5.292-76.73zm-34.397 66.146S31.75 79.375 44.98 58.209c-13.229 3.968-23.812 3.968-23.812 3.968-1.871 37.685-10.584 68.792-10.584 68.792zm34.399-82.021c2.645 3.969 2.645 6.615 2.645 6.615 1.323-.662 1.985-.993 2.646-.993.662 0 1.323.331 2.646.993 0 0 0-2.646 2.646-6.615-2.646-27.781-5.292-38.365-5.292-38.365s-2.646 10.584-5.291 38.365zM100.542 0s-26.137 26.163-44.98 55.563c0 0 11.919-5.292 37.042-5.292C96.614 39.98 100.542 0 100.542 0zM89.958 130.969s-21.166-51.594-34.396-72.76c13.23 3.968 23.813 3.968 23.813 3.968 1.87 37.685 10.583 68.792 10.583 68.792z" fill="#e8be2d"/></svg>